<mxfile host="app.diagrams.net" agent="Mozilla/5.0 (Windows NT 10.0; Win64; x64) AppleWebKit/537.36 (KHTML, like Gecko) Chrome/132.0.0.0 Safari/537.36" version="26.0.11">
  <diagram name="Page-1" id="Id-61EGT1rbVCe4s3NRI">
    <mxGraphModel dx="934" dy="485" grid="1" gridSize="10" guides="1" tooltips="1" connect="1" arrows="1" fold="1" page="1" pageScale="1" pageWidth="827" pageHeight="1169" math="0" shadow="0">
      <root>
        <mxCell id="0" />
        <mxCell id="1" parent="0" />
        <mxCell id="WHsfD3NvR8Sjtxwg3yAn-3" value="" style="edgeStyle=orthogonalEdgeStyle;rounded=0;orthogonalLoop=1;jettySize=auto;html=1;shape=link;fillColor=#dae8fc;strokeColor=#6c8ebf;" edge="1" parent="1" source="WHsfD3NvR8Sjtxwg3yAn-1" target="WHsfD3NvR8Sjtxwg3yAn-2">
          <mxGeometry relative="1" as="geometry" />
        </mxCell>
        <mxCell id="WHsfD3NvR8Sjtxwg3yAn-5" value="" style="edgeStyle=orthogonalEdgeStyle;rounded=0;orthogonalLoop=1;jettySize=auto;html=1;shape=link;fillColor=#dae8fc;strokeColor=#6c8ebf;" edge="1" parent="1" source="WHsfD3NvR8Sjtxwg3yAn-1" target="WHsfD3NvR8Sjtxwg3yAn-4">
          <mxGeometry relative="1" as="geometry" />
        </mxCell>
        <mxCell id="WHsfD3NvR8Sjtxwg3yAn-7" value="" style="edgeStyle=orthogonalEdgeStyle;rounded=0;orthogonalLoop=1;jettySize=auto;html=1;shape=link;fillColor=#dae8fc;strokeColor=#6c8ebf;" edge="1" parent="1" source="WHsfD3NvR8Sjtxwg3yAn-1" target="WHsfD3NvR8Sjtxwg3yAn-6">
          <mxGeometry relative="1" as="geometry" />
        </mxCell>
        <mxCell id="WHsfD3NvR8Sjtxwg3yAn-1" value="USER HOMEPAGE" style="rounded=1;fillColor=none;strokeColor=#6c8ebf;" vertex="1" parent="1">
          <mxGeometry x="340" y="40" width="120" height="60" as="geometry" />
        </mxCell>
        <mxCell id="WHsfD3NvR8Sjtxwg3yAn-2" value="NEW BOOKING&amp;nbsp;" style="whiteSpace=wrap;html=1;rounded=1;align=center;fillColor=#dae8fc;strokeColor=#6c8ebf;" vertex="1" parent="1">
          <mxGeometry x="120" y="80" width="120" height="60" as="geometry" />
        </mxCell>
        <mxCell id="WHsfD3NvR8Sjtxwg3yAn-4" value="STATISTICS" style="whiteSpace=wrap;html=1;rounded=1;fillColor=#dae8fc;strokeColor=#6c8ebf;" vertex="1" parent="1">
          <mxGeometry x="560" y="80" width="120" height="60" as="geometry" />
        </mxCell>
        <mxCell id="WHsfD3NvR8Sjtxwg3yAn-6" value="CALENDAR" style="whiteSpace=wrap;html=1;rounded=1;fillColor=#dae8fc;strokeColor=#6c8ebf;" vertex="1" parent="1">
          <mxGeometry x="340" y="130" width="120" height="60" as="geometry" />
        </mxCell>
      </root>
    </mxGraphModel>
  </diagram>
</mxfile>
